# xmcd
#
# Track frame offsets: 
#        150
#        40100
#        69773
#        92964
#        120106
#        140878
#        164598
#        183023
#        207210
#        228166
#        252612
#        281235
#        302184
#
# Disc length: 4256 seconds
#
# Revision: 2
# Processed by: cddbd v1.5.2PL0 Copyright (c) Steve Scherf et al.
# Submitted via: ExactAudioCopyFreeDBPlugin 1.0
#
DISCID=b7109e0d
DTITLE=Bob Sinclair - Western Dream
DYEAR=2006
DGENRE=Country
TTITLE0=Love Generation
TTITLE1=World, Hold on
TTITLE2=Tennessee
TTITLE3=In the name of love
TTITLE4=Miss me
TTITLE5=Sing my song
TTITLE6=Rock this party
TTITLE7=For you
TTITLE8=Everybody Movin'
TTITLE9=Amora, Amor
TTITLE10=Shining from Heaven
TTITLE11=Give a lil'love
TTITLE12=World, Hold on(Acoustic version)
EXTD=
EXTT0=
EXTT1=
EXTT2=
EXTT3=
EXTT4=
EXTT5=
EXTT6=
EXTT7=
EXTT8=
EXTT9=
EXTT10=
EXTT11=
EXTT12=
PLAYORDER=
